<svg width="119" height="119" viewBox="0 0 119 119" fill="none" xmlns="http://www.w3.org/2000/svg">
<path fill-rule="evenodd" clip-rule="evenodd" d="M59.5001 75.3194L99.0517 114.878C101.15 116.977 103.997 118.156 106.965 118.156C109.933 118.156 112.78 116.977 114.878 114.878C116.977 112.78 118.156 109.933 118.156 106.965C118.156 103.997 116.977 101.151 114.878 99.0518L75.3118 59.5003L114.871 19.9487C115.91 18.9095 116.733 17.6759 117.295 16.3184C117.857 14.9608 118.146 13.5058 118.146 12.0365C118.146 10.5672 117.856 9.11241 117.293 7.7551C116.731 6.39778 115.906 5.16457 114.867 4.12588C113.828 3.08718 112.594 2.26333 111.237 1.70138C109.879 1.13943 108.424 0.850375 106.955 0.850721C105.486 0.851067 104.031 1.14081 102.673 1.7034C101.316 2.26599 100.083 3.09042 99.0442 4.12961L59.5001 43.6811L19.9486 4.12961C18.9171 3.06061 17.683 2.20775 16.3184 1.62079C14.9537 1.03383 13.4859 0.724522 12.0004 0.710918C10.5149 0.697314 9.04165 0.979685 7.66649 1.54155C6.29133 2.10342 5.04184 2.93354 3.99092 3.98346C2.94001 5.03339 2.10871 6.2821 1.54555 7.65673C0.982383 9.03136 0.698624 10.5044 0.710827 11.9899C0.72303 13.4753 1.03095 14.9435 1.61662 16.3087C2.2023 17.6739 3.05399 18.9088 4.12201 19.9413L43.6885 59.5003L4.12948 99.0518C2.03074 101.151 0.851682 103.997 0.851682 106.965C0.851682 109.933 2.03074 112.78 4.12948 114.878C6.22821 116.977 9.07471 118.156 12.0428 118.156C15.0108 118.156 17.8573 116.977 19.9561 114.878L59.5001 75.3119V75.3194Z" fill="#C79D45"/>
</svg>
