<svg width="168" height="168" viewBox="0 0 168 168" fill="none" xmlns="http://www.w3.org/2000/svg">
<path d="M49 0.667725H119C145.667 0.667725 167.333 22.3344 167.333 49.0011V119.001C167.333 131.82 162.241 144.114 153.177 153.178C144.113 162.242 131.819 167.334 119 167.334H49C22.3333 167.334 0.666656 145.668 0.666656 119.001V49.0011C0.666656 36.1823 5.7589 23.8885 14.8232 14.8242C23.8874 5.75997 36.1812 0.667725 49 0.667725ZM47.3333 17.3344C39.3768 17.3344 31.7462 20.4951 26.1201 26.1212C20.494 31.7473 17.3333 39.3779 17.3333 47.3344V120.668C17.3333 137.251 30.75 150.668 47.3333 150.668H120.667C128.623 150.668 136.254 147.507 141.88 141.881C147.506 136.255 150.667 128.624 150.667 120.668V47.3344C150.667 30.7511 137.25 17.3344 120.667 17.3344H47.3333ZM127.75 29.8344C130.513 29.8344 133.162 30.9319 135.116 32.8854C137.069 34.8389 138.167 37.4884 138.167 40.2511C138.167 43.0137 137.069 45.6632 135.116 47.6167C133.162 49.5703 130.513 50.6677 127.75 50.6677C124.987 50.6677 122.338 49.5703 120.384 47.6167C118.431 45.6632 117.333 43.0137 117.333 40.2511C117.333 37.4884 118.431 34.8389 120.384 32.8854C122.338 30.9319 124.987 29.8344 127.75 29.8344ZM84 42.3344C95.0507 42.3344 105.649 46.7243 113.463 54.5383C121.277 62.3523 125.667 72.9504 125.667 84.001C125.667 95.0517 121.277 105.65 113.463 113.464C105.649 121.278 95.0507 125.668 84 125.668C72.9493 125.668 62.3512 121.278 54.5372 113.464C46.7232 105.65 42.3333 95.0517 42.3333 84.001C42.3333 72.9504 46.7232 62.3523 54.5372 54.5383C62.3512 46.7243 72.9493 42.3344 84 42.3344ZM84 59.001C77.3696 59.001 71.0107 61.635 66.3223 66.3234C61.6339 71.0118 59 77.3706 59 84.001C59 90.6315 61.6339 96.9903 66.3223 101.679C71.0107 106.367 77.3696 109.001 84 109.001C90.6304 109.001 96.9892 106.367 101.678 101.679C106.366 96.9903 109 90.6315 109 84.001C109 77.3706 106.366 71.0118 101.678 66.3234C96.9892 61.635 90.6304 59.001 84 59.001Z" fill="#C79D45"/>
</svg>
