<svg width="201" height="170" viewBox="0 0 201 170" fill="none" xmlns="http://www.w3.org/2000/svg">
<path d="M196.49 93.4901L124.49 165.49C122.236 167.744 119.178 169.011 115.99 169.011C112.802 169.011 109.744 167.744 107.49 165.49C105.236 163.236 103.969 160.178 103.969 156.99C103.969 153.802 105.236 150.744 107.49 148.49L159 97H12C8.8174 97 5.76516 95.7358 3.51472 93.4853C1.26428 91.2349 0 88.1826 0 85C0 81.8174 1.26428 78.7652 3.51472 76.5148C5.76516 74.2643 8.8174 73 12 73H159L107.51 21.48C105.256 19.2257 103.989 16.1682 103.989 12.98C103.989 9.79192 105.256 6.73438 107.51 4.48004C109.764 2.2257 112.822 0.959229 116.01 0.959229C119.198 0.959228 122.256 2.2257 124.51 4.48004L196.51 76.48C197.629 77.5964 198.516 78.9228 199.121 80.383C199.726 81.8433 200.036 83.4086 200.034 84.9892C200.033 86.5698 199.719 88.1344 199.11 89.5932C198.502 91.052 197.612 92.3763 196.49 93.4901Z" fill="#C79D45"/>
</svg>
