<svg width="150" height="150" viewBox="0 0 150 150" fill="none" xmlns="http://www.w3.org/2000/svg">
<path d="M150 111.833V141.3C150.001 143.41 149.202 145.441 147.763 146.985C146.325 148.528 144.355 149.469 142.25 149.617C138.608 149.867 135.633 150 133.333 150C59.6917 150 0 90.3083 0 16.6667C0 14.3667 0.125 11.3917 0.383333 7.75C0.53102 5.64537 1.47151 3.67509 3.01503 2.23674C4.55855 0.79839 6.59019 -0.000953609 8.7 2.13816e-06H38.1667C39.2003 -0.00104445 40.1975 0.382159 40.9644 1.07517C41.7313 1.76818 42.2133 2.72152 42.3167 3.75C42.5083 5.66667 42.6833 7.19167 42.85 8.35C44.5061 19.9077 47.9 31.1486 52.9167 41.6917C53.7083 43.3583 53.1917 45.35 51.6917 46.4167L33.7083 59.2667C44.7038 84.8871 65.1212 105.305 90.7417 116.3L103.575 98.35C104.1 97.6167 104.865 97.0907 105.737 96.8638C106.61 96.6369 107.535 96.7234 108.35 97.1083C118.892 102.116 130.13 105.501 141.683 107.15C142.842 107.317 144.367 107.492 146.267 107.683C147.294 107.789 148.245 108.271 148.936 109.038C149.628 109.805 150.001 110.801 150 111.833Z" fill="#C79D45"/>
</svg>
