<svg width="166" height="168" viewBox="0 0 166 168" fill="none" xmlns="http://www.w3.org/2000/svg">
<path d="M141.75 24.9165C134.11 17.1992 125.01 11.0804 114.98 6.91694C104.951 2.75346 94.1926 0.628681 83.3333 0.666512C37.8333 0.666512 0.750012 37.7498 0.750012 83.2498C0.750012 97.8332 4.58334 112 11.75 124.5L0.0833435 167.333L43.8333 155.833C55.9167 162.417 69.5 165.917 83.3333 165.917C128.833 165.917 165.917 128.833 165.917 83.3332C165.917 61.2498 157.333 40.4998 141.75 24.9165ZM83.3333 151.917C71 151.917 58.9167 148.583 48.3333 142.333L45.8333 140.833L19.8333 147.667L26.75 122.333L25.0833 119.75C18.2312 108.808 14.5928 96.1602 14.5833 83.2498C14.5833 45.4165 45.4167 14.5832 83.25 14.5832C101.583 14.5832 118.833 21.7498 131.75 34.7498C138.146 41.1162 143.214 48.6887 146.662 57.0284C150.109 65.3681 151.867 74.3091 151.833 83.3332C152 121.167 121.167 151.917 83.3333 151.917ZM121 100.583C118.917 99.5832 108.75 94.5832 106.917 93.8332C105 93.1665 103.667 92.8332 102.25 94.8332C100.833 96.9165 96.9167 101.583 95.75 102.917C94.5833 104.333 93.3333 104.5 91.25 103.417C89.1667 102.417 82.5 100.167 74.6667 93.1665C68.5 87.6665 64.4167 80.9165 63.1667 78.8332C62 76.7498 63 75.6665 64.0833 74.5832C65 73.6665 66.1667 72.1665 67.1667 70.9998C68.1667 69.8332 68.5833 68.9165 69.25 67.5832C69.9167 66.1665 69.5833 64.9998 69.0833 63.9998C68.5833 62.9998 64.4167 52.8332 62.75 48.6665C61.0833 44.6665 59.3333 45.1665 58.0833 45.0832H54.0833C52.6667 45.0832 50.5 45.5832 48.5833 47.6665C46.75 49.7498 41.4167 54.7498 41.4167 64.9165C41.4167 75.0832 48.8333 84.9165 49.8333 86.2498C50.8333 87.6665 64.4167 108.5 85.0833 117.417C90 119.583 93.8333 120.833 96.8333 121.75C101.75 123.333 106.25 123.083 109.833 122.583C113.833 122 122.083 117.583 123.75 112.75C125.5 107.916 125.5 103.833 124.917 102.917C124.333 102 123.083 101.583 121 100.583Z" fill="#C79D45"/>
</svg>
